<?xml version="1.0" standalone="no"?><!DOCTYPE svg PUBLIC "-//W3C//DTD SVG 1.1//EN" "http://www.w3.org/Graphics/SVG/1.1/DTD/svg11.dtd"><svg t="1494405076979" class="icon" style="" viewBox="0 0 1024 1024" version="1.1" xmlns="http://www.w3.org/2000/svg" p-id="5663" xmlns:xlink="http://www.w3.org/1999/xlink" width="200" height="200"><defs><style type="text/css"></style></defs><path d="M480.778406 770.76575c8.67306 13.87649 13.87649 24.283349 13.87649 36.424007 0 19.079919-15.610289 34.690208-34.690208 34.690208s-34.690208-15.610289-34.690208-34.690208c0-13.87649 6.937229-26.017148 17.344088-43.361236-26.017148-6.937229-52.034296-19.079919-74.581813-32.954376l-12.140659 26.017148-31.220577-62.441155c-45.097067-46.830866-72.848014-111.00582-72.848014-180.386236 0-143.962229 116.20925-260.171479 260.171479-260.171479s260.171479 116.20925 260.171478 260.171479c0 29.486778-5.20343 57.237725-13.876489 83.254873-8.67306 26.017148-22.547517 50.300497-38.157806 72.848014l-34.690208 69.378383-10.406859-22.547517c-26.017148 20.813718-55.503926 36.424007-86.724504 45.097067l-22.547518 45.097067-19.079919-36.424007c-10.406859 1.733799-22.547517 1.733799-32.954376 1.733799-12.140658-0.002033-22.547517-1.735832-32.954377-1.735831z m83.254873 105.80239C586.582829 911.258348 598.723487 926.868637 598.723487 945.948556s-15.610289 34.690208-34.690208 34.690208-34.690208-15.610289-34.690208-34.690208 12.142691-34.690208 34.690208-69.380416z" fill="#FFE079" p-id="5664"></path><path d="M303.861801 1024h-3.469631c-3.469631-1.733799-5.20343-5.20343-5.203429-8.67306v-3.469631l29.486778-71.114215c1.733799-5.20343 6.937229-6.937229 12.140658-5.203429 3.469631 1.733799 5.20343 5.20343 5.20343 8.67306v3.46963l-29.486779 71.114215c-1.731766 3.467598-5.201397 5.20343-8.671027 5.20343z m416.274366-1.735832c-3.469631 0-6.937229-1.733799-8.67306-5.203429L681.978361 947.682355v-3.46963c0-3.469631 1.733799-6.937229 5.203429-8.67306 5.20343-1.733799 8.67306 0 12.140658 5.203429l29.486779 69.378384v3.46963c0 3.469631-1.733799 6.937229-5.20343 8.67306h-3.46963z m-156.102888-32.954376c-24.283349 0-43.361236-19.079919-43.361235-43.361236 0-19.079919 10.406859-34.690208 27.750947-62.441155l8.67306-12.140658c1.733799-1.733799 5.20343-3.469631 6.937228-3.46963 3.469631 0 5.20343 1.733799 6.937229 3.46963 3.469631 6.937229 6.937229 12.140658 10.406859 17.344088 15.610289 24.283349 26.017148 38.157806 26.017148 57.237725 0.002033 24.281316-19.077887 43.361236-43.361236 43.361236z m0-97.131363c-17.344088 26.017148-26.017148 39.893638-26.017147 53.768095 0 13.87649 12.140658 26.017148 26.017147 26.017148s26.017148-12.140658 26.017148-26.017148-6.937229-24.283349-22.547517-48.564665c-1.733799-1.733799-1.733799-3.467598-3.469631-5.20343zM359.365727 888.710831h-3.469631c-3.469631-1.733799-5.20343-5.20343-5.203429-8.67306v-3.469631l13.87649-34.690208c1.733799-5.20343 6.937229-6.937229 12.140658-5.203429 3.469631 1.733799 5.20343 5.20343 5.203429 8.67306v3.46963l-13.876489 34.690208c-1.733799 3.467598-5.201397 5.20343-8.671028 5.20343z m305.268546 0c-3.469631 0-6.937229-1.733799-8.67306-5.20343l-24.283349-55.503926v-3.46963c0-3.469631 1.733799-6.937229 5.203429-8.673061 5.20343-1.733799 8.67306 0 12.140659 5.20343l24.283349 55.503926v3.469631c0 3.469631-1.733799 6.937229-5.20343 8.67306h-3.467598zM187.652551 854.020623c-1.733799 0-5.20343 0-6.937228-1.733799s-1.733799-3.469631-1.733799-6.937229 0-5.20343 1.733799-6.937228l98.865161-98.865162c3.469631-3.469631 8.67306-3.469631 12.140659 0 1.733799 1.733799 1.733799 3.469631 1.733799 6.937229s0 5.20343-1.733799 6.937228l-98.865162 98.865162c-1.733799 1.733799-3.469631 1.733799-5.20343 1.733799z m660.835556 0c-1.733799 0-5.20343 0-6.937229-1.733799l-98.865161-98.865162c-1.733799-1.733799-1.733799-3.469631-1.733799-6.937228s0-5.20343 1.733799-6.937229c3.469631-3.469631 8.67306-3.469631 12.140658 0L853.691537 838.410334c1.733799 1.733799 1.733799 3.469631 1.733799 6.937229s0 5.20343-1.733799 6.937228c-1.733799 1.735832-1.733799 1.735832-5.20343 1.735832z m-388.523419-3.469631c-24.283349 0-43.361236-19.079919-43.361236-43.361235 0-12.140658 5.20343-24.283349 13.87649-38.157806-20.813718-6.937229-39.893638-15.610289-57.237725-26.017148l-8.67306 17.344088c-3.469631 5.20343-12.140658 5.20343-15.610289 0l-31.220578-60.707356c-48.564665-50.300497-74.581813-116.20925-74.581813-185.589666 0-147.429827 121.412679-268.844539 268.844539-268.844539S780.843523 366.632042 780.843523 514.061869c0 58.971524-19.079919 114.475451-53.768095 159.572518l-34.690208 69.378383c-1.733799 3.469631-5.20343 5.20343-6.937229 5.20343-3.469631 0-6.937229-1.733799-6.937228-5.20343l-6.937229-12.140658c-24.283349 17.344088-50.300497 31.220577-78.051444 39.893638l-20.813718 41.627436c-3.469631 5.20343-12.140658 5.20343-15.610289 0l-15.610288-31.220577c-15.610289 1.733799-29.486778 1.733799-43.361236 1.733799 5.20343 8.67306 6.937229 17.344088 6.937229 26.017148-1.735832 22.54955-20.815751 41.627437-45.0991 41.627436z m-91.925901-130.085739c1.733799 0 3.469631 0 5.20343 1.733799 22.547517 13.87649 46.830866 26.017148 72.848014 32.954377 3.469631 0 5.20343 3.469631 5.203429 5.203429 1.733799 1.733799 0 5.20343 0 6.937229-12.140658 17.344088-17.344088 27.750947-17.344087 39.893637 0 13.87649 12.140658 26.017148 26.017148 26.017148 13.87649 0 26.017148-12.140658 26.017147-26.017148 0-8.67306-3.469631-17.344088-12.140658-32.954376-1.733799-3.469631-1.733799-6.937229 0-8.67306 1.733799-1.733799 5.20343-5.20343 8.67306-3.469631 22.547517 3.469631 38.157806 3.469631 62.441155 0 3.469631 0 6.937229 1.733799 8.67306 5.20343l10.40686 20.813718 15.610288-29.486778 5.20343-5.20343c31.220577-8.67306 58.971524-24.283349 84.988672-45.097067 1.733799-1.733799 5.20343-1.733799 6.937229-1.733799 1.733799 0 5.20343 1.733799 5.203429 5.203429l3.469631 6.937229 26.017148-53.768095s0-1.733799 1.733799-1.733799c32.954376-43.361236 50.300497-95.395531 50.300496-150.899457 0-138.7588-112.741652-251.498419-251.498418-251.498419S260.500565 373.569271 260.500565 512.32807c0 65.910785 24.283349 126.616109 71.114215 173.446975l1.733799 1.733799 24.283349 46.830866 5.20343-10.406859 5.203429-5.203429v1.735831z m646.959066 8.67306h-3.46963l-71.114215-29.486778c-3.469631-1.733799-5.20343-5.20343-5.20343-8.67306v-3.469631c1.733799-5.20343 6.937229-6.937229 12.140658-5.203429l71.114215 29.486778c3.469631 1.733799 5.20343 5.20343 5.20343 8.67306v3.469631c-1.733799 3.469631-5.201397 5.20343-8.671028 5.203429z m-1005.995706 0c-3.469631 0-6.937229-1.733799-8.673061-5.203429v-3.469631c0-3.469631 1.733799-6.937229 5.20343-8.67306l71.114215-29.486778c5.20343-1.733799 8.67306 0 12.140658 5.203429v3.469631c0 3.469631-1.733799 6.937229-5.203429 8.67306L12.469745 729.138313H9.002147z m433.618453-34.690208c-13.87649 0-26.017148-12.140658-26.017148-26.017148 0-5.20343 3.469631-8.67306 8.673061-8.67306s8.67306 3.469631 8.67306 8.67306c0 5.20343 3.469631 8.67306 8.67306 8.673061s8.67306-3.469631 8.67306-8.673061c0-5.20343 3.469631-8.67306 8.67306-8.67306 5.20343 0 8.67306 3.469631 8.67306 8.67306-0.004065 13.87649-12.144723 26.017148-26.021213 26.017148z m156.102887-17.344087c-24.283349 0-43.361236-19.079919-43.361235-43.361236 0-5.20343 3.469631-8.67306 8.67306-8.67306s8.67306 3.469631 8.67306 8.67306c0 13.87649 12.140658 26.017148 26.017148 26.017148s26.017148-12.140658 26.017148-26.017148c0-5.20343 3.469631-8.67306 8.67306-8.67306 5.20343 0 8.67306 3.469631 8.67306 8.67306-0.004065 24.281316-19.081952 43.361236-43.365301 43.361236z m280.985197-3.469631h-3.46963l-64.174954-26.017148c-3.469631-1.733799-5.20343-5.20343-5.20343-8.67306v-3.469631c1.733799-5.20343 6.937229-6.937229 12.140659-5.203429l64.174953 26.017148c3.469631 1.733799 5.20343 5.20343 5.20343 8.67306v3.46963c-1.733799 3.469631-5.201397 5.20343-8.671028 5.20343z m-735.417368 0c-3.469631 0-6.937229-1.733799-8.673061-5.20343v-3.46963c0-3.469631 1.733799-6.937229 5.20343-8.67306l64.174954-26.017148c5.20343-1.733799 8.67306 0 12.140658 5.203429v3.469631c0 3.469631-1.733799 6.937229-5.20343 8.67306l-64.174953 26.017148h-3.467598z m228.950901-48.564665c-13.87649 0-26.017148-12.140658-26.017148-26.017148 0-5.20343 3.469631-8.67306 8.67306-8.67306s8.67306 3.469631 8.67306 8.67306c0 5.20343 3.469631 8.67306 8.67306 8.67306s8.67306-3.469631 8.673061-8.67306c0-5.20343 3.469631-8.67306 8.67306-8.67306s8.67306 3.469631 8.67306 8.67306c-0.004065 13.87649-12.146756 26.017148-26.021213 26.017148z m607.065428-104.068592h-138.758799c-5.20343 0-8.67306-3.469631-8.67306-8.67306 0-5.20343 3.469631-8.67306 8.67306-8.67306h138.758799c5.20343 0 8.67306 3.469631 8.673061 8.67306 0 5.20343-3.469631 8.67306-8.673061 8.67306z m-797.858523 0H43.690322c-5.20343 0-8.67306-3.469631-8.67306-8.67306 0-5.20343 3.469631-8.67306 8.67306-8.67306H182.449122c5.20343 0 8.67306 3.469631 8.67306 8.67306 0 5.20343-3.469631 8.67306-8.67306 8.67306z m499.529239-86.724503c-3.469631 0-6.937229-1.733799-6.937229-5.20343-13.87649-27.750947-36.424007-52.034296-62.441155-71.114215-3.469631-3.469631-5.20343-8.67306-1.733799-12.140658 3.469631-3.469631 8.67306-5.20343 12.140658-1.733799 29.486778 19.079919 53.768095 45.097067 69.378384 76.317644 1.733799 3.469631 0 8.67306-3.469631 12.140659-3.467598 1.733799-5.20343 1.733799-6.937228 1.733799z m-475.245891-39.891605H203.26284l-64.174954-26.017148c-3.469631-1.733799-5.20343-5.20343-5.20343-8.673061v-3.46963c1.733799-5.20343 6.937229-6.937229 12.140659-5.20343l64.174953 26.017148c3.469631 1.733799 5.20343 5.20343 5.20343 8.67306v3.469631c-1.733799 3.467598-5.20343 5.20343-8.671028 5.20343z m610.53506 0c-3.469631 0-6.937229-1.733799-8.673061-5.20343v-3.469631c0-3.469631 1.733799-6.937229 5.20343-8.67306l64.174954-26.017148c5.20343-1.733799 8.67306 0 12.140658 5.20343v3.46963c0 3.469631-1.733799 6.937229-5.20343 8.673061l-64.174953 26.017148h-3.467598z m126.616108-52.034296c-3.469631 0-6.937229-1.733799-8.67306-5.20343v-3.46963c0-3.469631 1.733799-6.937229 5.20343-8.673061l71.114215-29.486778c5.20343-1.733799 8.67306 0 12.140658 5.20343v3.46963c0 3.469631-1.733799 6.937229-5.20343 8.67306l-71.114215 29.486779h-3.467598z m-863.769309 0h-3.469631L5.532516 312.863947c-3.469631-1.733799-5.20343-5.20343-5.20343-8.67306v-3.46963c1.733799-5.20343 6.937229-6.937229 12.140659-5.20343l71.114215 29.486778c3.469631 1.733799 5.20343 5.20343 5.203429 8.673061v3.46963c-3.469631 3.467598-5.20343 5.20343-8.67306 5.20343z m671.242415-52.034296c-1.733799 0-5.20343 0-6.937228-1.733799-1.733799-1.733799-1.733799-3.469631-1.733799-6.937229s0-5.20343 1.733799-6.937228l84.988672-84.988672c3.469631-3.469631 8.67306-3.469631 12.140658 0 1.733799 1.733799 1.733799 3.469631 1.733799 6.937228 0 3.469631 0 5.20343-1.733799 6.937229l-84.988672 84.988672c-1.733799 1.733799-3.467598 1.733799-5.20343 1.733799z m-466.57283 0c-1.733799 0-5.20343 0-6.937229-1.733799l-98.865161-98.865162c-1.735832-1.735832-1.735832-3.469631-1.735832-6.939261s0-5.20343 1.733799-6.937229c3.469631-3.469631 8.67306-3.469631 12.140658 0l98.865162 98.865162c1.733799 1.733799 1.733799 3.469631 1.733799 6.937229s0 5.20343-1.733799 6.937228c-1.733799 1.735832-3.467598 1.735832-5.201397 1.735832z m100.598961-74.583846c-3.469631 0-6.937229-1.733799-8.67306-5.203429L350.692667 146.354201v-3.469631c0-3.469631 1.733799-6.937229 5.203429-8.67306 5.20343-1.733799 8.67306 0 12.140659 5.20343l26.017147 64.174954v3.46963c0 3.469631-1.733799 6.937229-5.203429 8.67306H385.382875z m253.23425 0h-3.469631c-3.469631-1.733799-5.20343-5.20343-5.203429-8.67306v-3.46963l26.017148-64.174954c1.733799-5.20343 6.937229-6.937229 12.140658-5.20343 3.469631 1.733799 5.20343 5.20343 5.20343 8.67306V146.354201l-26.017148 64.174954c-1.733799 3.469631-5.20343 5.20343-8.671028 5.203429z m-126.618141-24.281316c-5.20343 0-8.67306-3.469631-8.67306-8.67306V61.365529c0-5.20343 3.469631-8.67306 8.67306-8.67306s8.67306 3.469631 8.67306 8.67306V182.778208c0 5.20343-3.469631 8.67306-8.67306 8.67306zM333.348579 89.116476c-3.469631 0-6.937229-1.733799-8.67306-5.20343L295.190773 12.798831V9.3292c0-3.469631 1.733799-6.937229 5.20343-8.67306 5.20343-1.733799 8.67306 0 12.140658 5.20343l29.486778 71.114215v3.46963c0 3.469631-1.733799 6.937229-5.203429 8.673061-1.735832-1.733799-3.469631 0-3.469631 0z m357.302842 0h-3.469631c-3.469631-1.733799-5.20343-5.20343-5.203429-8.673061v-3.46963L711.465139 5.861602C713.198938 0.658173 718.402368-1.075626 723.605797 0.658173c3.469631 1.733799 5.20343 5.20343 5.20343 8.67306v3.469631L699.322448 83.913046c-1.733799 1.733799-5.20343 5.20343-8.671027 5.20343z" fill="#51565F" p-id="5665"></path></svg>